<svg width="146" height="146" viewBox="0 0 146 146" fill="none" xmlns="http://www.w3.org/2000/svg">
<rect width="146" height="146" fill="#65F974"/>
<path d="M101.156 49.6855C100.905 49.4421 94.9919 43.6665 88.0635 44.2626C86.9229 44.3549 85.8408 44.632 84.8176 45.0013C85.5725 42.8355 86.0254 40.4262 85.7989 37.9079C85.0189 29.2782 76.6566 23.234 76.2959 22.9822L74.9203 22L73.7377 23.2172C73.4357 23.5278 66.298 30.9822 67.078 39.6119C67.6484 45.8995 72.2364 50.8104 74.8281 53.1105L70.3743 61.0351C69.1246 63.1337 68.4368 65.7529 68.4368 68.4056V76.1369C66.7593 76.5485 65.4676 77.3544 64.4443 78.3783C61.3745 81.5011 60.8461 85.7994 60.8461 91.6924C60.8461 97.5854 61.3745 101.841 64.4443 104.956C65.9373 106.45 68.0007 107.55 71.0285 107.55C74.0564 107.55 76.1198 106.45 77.6127 104.956C80.6826 101.833 81.211 97.5769 81.211 91.6924C81.211 85.8074 80.6826 81.5011 77.6127 78.3783C76.3546 77.1193 74.6855 76.1874 72.3873 75.9188V68.4056C72.3873 66.4496 72.8738 64.5524 73.788 63.0162L77.8811 55.738C79.9864 57.3582 83.9117 59.8179 88.3655 59.8179C88.6926 59.8179 89.0197 59.8011 89.3469 59.7759C96.2835 59.1966 101.165 52.5481 101.366 52.2627L102.356 50.8859L101.148 49.6939L101.156 49.6855ZM77.3443 91.6754C77.3443 95.8056 77.3863 100.289 74.8029 102.748C73.9222 103.579 72.6557 104.15 71.0285 104.15C69.4014 104.15 68.1349 103.579 67.2542 102.748C66.6838 102.219 66.2477 101.565 65.8954 100.817L77.2185 86.8068C77.3527 88.385 77.3527 90.0552 77.3527 91.6839L77.3443 91.6754ZM76.2959 82.8022L64.8386 96.8636C64.6624 95.1929 64.7044 93.3966 64.7044 91.6754C64.7044 87.5452 64.6624 83.0628 67.2542 80.6027C68.1349 79.7719 69.4014 79.2011 71.0285 79.2011C72.6557 79.2011 73.9222 79.7719 74.8029 80.6027C75.4571 81.216 75.9436 81.9628 76.2959 82.8022ZM71.0118 39.2426C70.5672 34.3149 73.6454 29.5972 75.4068 27.339C77.5456 29.2446 81.4207 33.3328 81.8652 38.252C82.2846 42.9027 79.567 47.3602 77.7805 49.7443C77.6547 49.8702 77.5372 49.9961 77.4282 50.1137C75.281 48.1913 71.4563 44.1283 71.0118 39.2342V39.2426ZM89.0197 55.822C85.5976 56.099 82.3013 54.1011 80.4813 52.7328C80.5819 52.6069 80.691 52.4642 80.8 52.3214C82.4271 50.6845 85.1866 48.4599 88.3907 48.1997C91.8379 47.9142 95.1679 49.9541 96.9793 51.3225C95.4196 52.9762 92.4752 55.5366 89.0281 55.822H89.0197Z" fill="black"/>
<path d="M93.704 85.6871C93.704 84.0957 93.9528 82.5043 94.194 80.9053C94.4433 79.314 94.6845 77.6612 94.6845 76.0698C94.6845 70.1117 90.8583 67.99 85.7385 67.99H84.4445V71.2343H85.5536C89.0098 71.2343 90.4245 73.0641 90.4245 76.362C90.4245 77.7764 90.2396 79.1369 89.9904 80.6131C89.7413 82.0275 89.5564 83.5037 89.5564 85.0951C89.4921 88.8698 91.2204 90.8762 94.0014 91.522V91.6372C91.2284 92.3444 89.5001 94.2355 89.5564 98.0103C89.5564 99.6017 89.7413 101.016 89.9904 102.492C90.2396 103.907 90.4245 105.321 90.4245 106.682C90.4245 109.865 89.1947 111.756 85.5536 111.756H84.4445V115H85.7385C90.9792 115 94.6845 112.701 94.6845 107.274C94.6845 105.621 94.4353 104.03 94.194 102.377C93.9448 100.724 93.704 99.071 93.704 97.4183C93.704 95.3581 94.3229 93.0515 98.7034 93.0515V90.0458C94.3229 90.0458 93.704 87.5088 93.704 85.6795V85.6871Z" fill="black"/>
<path d="M47.6033 76.0623C47.6033 77.6532 47.8673 79.3064 48.1227 80.8978C48.3867 82.4887 48.6422 84.0801 48.6422 85.6795C48.6422 87.5088 47.9865 90.0458 43.3457 90.0458V93.0515C47.9865 93.0515 48.6422 95.3506 48.6422 97.4183C48.6422 99.071 48.3782 100.724 48.1227 102.377C47.8588 104.03 47.6033 105.621 47.6033 107.274C47.6033 112.701 51.5884 115 57.1404 115H58.4432V111.756H57.2681C53.4788 111.694 52.1079 109.872 52.1079 106.682C52.1079 105.329 52.3718 103.907 52.5677 102.492C52.8317 101.016 53.0871 99.6017 53.0871 98.0103C53.0871 94.2355 51.2564 92.3444 48.3867 91.6372V91.522C51.2649 90.8762 53.0871 88.8698 53.0871 85.0951C53.0871 83.5037 52.8232 82.0275 52.5677 80.6131C52.3718 79.1369 52.1079 77.7839 52.1079 76.362C52.1079 73.0561 53.6747 71.2881 57.3362 71.2343H58.4432V67.99H57.0723C51.7162 67.99 47.5948 70.1117 47.5948 76.0698L47.6033 76.0623Z" fill="black"/>
</svg>
